<svg xmlns="http://www.w3.org/2000/svg" width="872" height="169" viewBox="0 0 872 169">
  <defs>
    <style>
      .cls-1 {
        fill-rule: evenodd;
      }
    </style>
  </defs>
  <path id="OuraBot" class="cls-1" d="M137.2,144.837q22.2-23.383,22.2-61.566,0-37.165-21.407-59.871T81.906,0.693q-36.715,0-58.968,23.723T0.684,86.547q0,36.375,21.915,59.024t56.709,22.65Q115,168.221,137.2,144.837ZM110.26,46.105q10.731,14.009,10.731,39.2,0,24.175-11.07,37.787T79.985,136.7q-18.3,0-29.6-14.007t-11.3-38.07q0-23.723,11.3-38.126t30.5-14.4Q99.528,32.1,110.26,46.105ZM288.071,49.72H252.487v66.2q0,11.522-5.761,18.244t-15.363,6.721q-19.431,0-19.43-24.513V49.72H176.349v69.813q0,48.688,40.215,48.688,22.14,0,35.358-20.447h0.565V165.4h35.584V49.72Zm100.883-.678a23,23,0,0,0-8.812-1.356q-22.027,0-30.5,23.5H349.19V49.72h-35.7V165.4h35.7V110.157q0-14.685,6.552-23.215t18.187-8.529a30.984,30.984,0,0,1,15.025,3.5V49.043ZM497.179,96.262q0-49.365-49.479-49.366a107.2,107.2,0,0,0-23.553,2.937q-12.937,2.939-20.391,6.778V83.5Q422.4,71.185,443.068,71.184q20.559,0,20.56,18.978l-31.4,4.18q-39.879,5.2-39.877,38.86,0,15.929,9.659,25.474t26.49,9.546q22.817,0,34.454-19.43H463.4v16.6h33.777V96.262ZM457.3,135.969q-6.328,6.948-16.38,6.947-7.23,0-11.466-3.9a12.976,12.976,0,0,1-4.236-10q0-13.443,17.4-15.7l21.012-2.712v7.8Q463.628,129.023,457.3,135.969ZM586.538,165.4q27.563,0,43.492-13.047t15.928-35.3a35.7,35.7,0,0,0-10.336-25.868Q625.286,80.562,608,78.413V77.962a46.589,46.589,0,0,0,22.649-13.669,33.16,33.16,0,0,0,8.868-22.932q0-18.073-14.572-28.015T583.262,3.4H524.295V165.4h62.243ZM574.451,30.29q26.659,0,26.66,17.849,0,9.6-6.5,15.081T576.823,68.7H560.782V30.29h13.669Zm6.326,65.52q12.651,0,19.713,5.535t7.06,15.251q0,10.167-7.173,16.041t-19.826,5.874H560.782V95.81h20Zm185.1,55.692q16.887-16.718,16.888-45.525,0-26.659-16.38-42.87T721.2,46.9q-29.259,0-46.428,16.21T657.6,108.01q0,27.79,16.549,44t45.469,16.211Q748.986,168.221,765.875,151.5Zm-19.487-44.847q0,34.228-25.643,34.228-26.886,0-26.885-33.325,0-15.927,7-24.626t19.655-8.7q25.868,0,25.869,32.421h0Zm124.831,30.952a24.178,24.178,0,0,1-11.635,3.276q-14.347,0-14.347-18.074V76.041h25.982V49.72H845.237V14.588L809.653,24.755V49.72H790.9V76.041h18.752v52.981q0,39.2,37.731,39.2,15.927,0,23.835-4.18V137.607Z"/>
</svg>
